<mxfile host="app.diagrams.net" modified="2024-01-31T07:51:25.159Z" agent="Mozilla/5.0 (Windows NT 10.0; Win64; x64) AppleWebKit/537.36 (KHTML, like Gecko) Chrome/121.0.0.0 Safari/537.36" version="22.1.21" etag="vXiVsyeJumPXD-2w4GC3" type="github">
  <diagram name="第 1 页" id="aIklF2pfTPYx2s7NK374">
    <mxGraphModel>
      <root>
        <mxCell id="0" />
        <mxCell id="1" parent="0" />
      </root>
    </mxGraphModel>
  </diagram>
</mxfile>
